<?xml version="1.0" encoding="UTF-8"?>
<svg width="202px" height="46px" viewBox="0 0 202 46" version="1.1" xmlns="http://www.w3.org/2000/svg" xmlns:xlink="http://www.w3.org/1999/xlink">
    <!-- Generator: Sketch 40.1 (33804) - http://www.bohemiancoding.com/sketch -->
    <title>Logo</title>
    <desc>Created with Sketch.</desc>
    <defs></defs>
    <g id="Page-1" stroke="none" stroke-width="1" fill="none" fill-rule="evenodd">
        <g id="Landing" transform="translate(-538.000000, -58.000000)">
            <g id="Logo" transform="translate(540.000000, 60.000000)">
                <path d="M105.683007,32.3392732 L102.95098,32.3392732 L102.95098,23.3624808 C102.95098,21.6818857 102.676746,20.441953 102.128268,19.6426456 C101.57979,18.8433382 100.767435,18.4436905 99.6911765,18.4436905 C98.5735238,18.4436905 97.5748955,18.8382145 96.6952614,19.6272744 C95.8156274,20.4163343 95.1895443,21.4359483 94.8169935,22.6861471 L94.8169935,32.3392732 L92.0849673,32.3392732 L92.0849673,23.3624808 C92.0849673,21.6408956 91.8159068,20.3907155 91.2777778,19.6119032 C90.7396487,18.8330908 89.9324673,18.4436905 88.8562092,18.4436905 C87.7592538,18.4436905 86.7657997,18.8279671 85.875817,19.5965319 C84.9858343,20.3650968 84.354577,21.3847108 83.9820261,22.6554047 L83.9820261,32.3392732 L81.25,32.3392732 L81.25,16.2917197 L83.7336601,16.2917197 L83.7336601,19.7348729 C84.3959728,18.5461593 85.2548967,17.629019 86.3104575,16.9834246 C87.3660183,16.3378301 88.5560936,16.0150377 89.880719,16.0150377 C91.2467389,16.0150377 92.3281551,16.3788196 93.125,17.1063943 C93.9218449,17.833969 94.4133978,18.7716041 94.5996732,19.9193276 C96.0484822,17.3164547 98.1078298,16.0150377 100.777778,16.0150377 C101.709155,16.0150377 102.490465,16.1841195 103.121732,16.522288 C103.752999,16.8604565 104.2549,17.3318359 104.627451,17.9364402 C105.000002,18.5410445 105.269062,19.2532373 105.434641,20.0730398 C105.600219,20.8928423 105.683007,21.7843641 105.683007,22.747632 L105.683007,32.3392732 Z M117.107843,32.6466976 C115.886704,32.6466976 114.769068,32.4263789 113.754902,31.9857351 C112.740736,31.5450913 111.871463,30.9456197 111.147059,30.1873024 C110.422654,29.4289851 109.858662,28.5425869 109.455065,27.5280814 C109.051469,26.5135758 108.849673,25.4427249 108.849673,24.3154964 C108.849673,23.188268 109.051469,22.1225408 109.455065,21.1182827 C109.858662,20.1140247 110.427829,19.2327502 111.162582,18.4744329 C111.897335,17.7161156 112.771781,17.116644 113.785948,16.6760002 C114.800114,16.2353563 115.91775,16.0150377 117.138889,16.0150377 C118.360028,16.0150377 119.47249,16.24048 120.476307,16.6913714 C121.480125,17.1422628 122.333874,17.7417344 123.037582,18.4898041 C123.741289,19.2378739 124.284584,20.108901 124.667484,21.1029115 C125.050383,22.096922 125.24183,23.1267834 125.24183,24.1925267 C125.24183,24.4179724 125.236656,24.6229199 125.226307,24.8073755 C125.215959,24.991831 125.200436,25.1352943 125.179739,25.2377696 L111.736928,25.2377696 C111.79902,26.037077 111.985293,26.7646408 112.295752,27.4204828 C112.606211,28.0763248 113.009801,28.6399306 113.506536,29.111317 C114.00327,29.5827034 114.567263,29.951609 115.198529,30.2180448 C115.829796,30.4844806 116.497273,30.6176965 117.20098,30.6176965 C117.697715,30.6176965 118.184093,30.5510886 118.660131,30.4178707 C119.136168,30.2846528 119.581153,30.1053237 119.995098,29.879878 C120.409043,29.6544323 120.776415,29.3777531 121.097222,29.0498321 C121.41803,28.7219111 121.661219,28.3530055 121.826797,27.9431043 L124.186275,28.5886955 C123.91721,29.1830523 123.549839,29.7261633 123.08415,30.2180448 C122.618462,30.7099263 122.080341,31.1351925 121.469771,31.4938561 C120.859202,31.8525197 120.181376,32.1343225 119.436275,32.3392732 C118.691173,32.5442238 117.915037,32.6466976 117.107843,32.6466976 L117.107843,32.6466976 Z M122.665033,23.239511 C122.602941,22.4811937 122.411494,21.7792484 122.090686,21.1336539 C121.769879,20.4880595 121.366288,19.9398248 120.879902,19.4889334 C120.393516,19.038042 119.829524,18.6845075 119.187908,18.4283192 C118.546293,18.172131 117.863293,18.0440387 117.138889,18.0440387 C116.414484,18.0440387 115.731485,18.172131 115.089869,18.4283192 C114.448254,18.6845075 113.884262,19.0431657 113.397876,19.5043046 C112.91149,19.9654435 112.518248,20.5136782 112.218137,21.1490251 C111.918027,21.7843721 111.736928,22.4811937 111.674837,23.239511 L122.665033,23.239511 Z M134.95915,32.6466976 C133.841498,32.6466976 132.80665,32.4212553 131.854575,31.9703639 C130.902501,31.5194725 130.084971,30.9148773 129.401961,30.15656 C128.718951,29.3982427 128.186004,28.5169682 127.803105,27.5127101 C127.420205,26.5084521 127.228758,25.4529722 127.228758,24.3462389 C127.228758,23.2190104 127.409857,22.1481595 127.772059,21.1336539 C128.134261,20.1191483 128.641337,19.2327502 129.293301,18.4744329 C129.945265,17.7161156 130.721401,17.116644 131.621732,16.6760002 C132.522063,16.2353563 133.510343,16.0150377 134.586601,16.0150377 C135.890529,16.0150377 137.054733,16.3532012 138.079248,17.0295382 C139.103763,17.7058753 139.916119,18.5256655 140.51634,19.4889334 L140.51634,9.89729225 L143.248366,9.89729225 L143.248366,29.0190897 C143.248366,29.6544366 143.538123,29.9823527 144.117647,30.0028478 L144.117647,32.3392732 C143.827885,32.3802633 143.595044,32.4110054 143.419118,32.4315005 C143.243191,32.4519955 143.072441,32.4622429 142.906863,32.4622429 C142.368734,32.4622429 141.897878,32.2829138 141.494281,31.9242502 C141.090684,31.5655866 140.888889,31.1505679 140.888889,30.6791814 L140.888889,29.3265141 C140.247273,30.3717623 139.393524,31.1864288 138.327614,31.770538 C137.261705,32.3546473 136.138895,32.6466976 134.95915,32.6466976 L134.95915,32.6466976 Z M135.611111,30.3102722 C136.107846,30.3102722 136.620095,30.2180458 137.147876,30.0335902 C137.675656,29.8491346 138.172383,29.5929502 138.638072,29.2650292 C139.10376,28.9371082 139.507351,28.5528316 139.848856,28.1121877 C140.190361,27.6715439 140.412854,27.2052882 140.51634,26.7134067 L140.51634,22.1020408 C140.330064,21.5896642 140.050655,21.1029138 139.678105,20.6417749 C139.305554,20.180636 138.88644,19.7809883 138.420752,19.4428197 C137.955063,19.1046512 137.458336,18.8382194 136.930556,18.6435163 C136.402775,18.4488132 135.880177,18.3514631 135.362745,18.3514631 C134.555552,18.3514631 133.825984,18.5205449 133.17402,18.8587134 C132.522056,19.1968819 131.963238,19.6477665 131.497549,20.2113807 C131.03186,20.774995 130.674838,21.4205797 130.426471,22.1481544 C130.178103,22.8757291 130.053922,23.618664 130.053922,24.3769813 C130.053922,25.1762887 130.1988,25.9397184 130.488562,26.6672931 C130.778324,27.3948678 131.171566,28.0250815 131.668301,28.5579531 C132.165035,29.0908247 132.749724,29.5160909 133.422386,29.8337643 C134.095047,30.1514378 134.824615,30.3102722 135.611111,30.3102722 L135.611111,30.3102722 Z M147.812092,32.3392732 L147.812092,16.2917197 L150.544118,16.2917197 L150.544118,32.3392732 L147.812092,32.3392732 Z M147.812092,13.2789606 L147.812092,9.89729225 L150.544118,9.89729225 L150.544118,13.2789606 L147.812092,13.2789606 Z M169.01634,32.3392732 L166.284314,32.3392732 L166.284314,23.3624808 C166.284314,21.6408956 166.020427,20.3907155 165.492647,19.6119032 C164.964867,18.8330908 164.162859,18.4436905 163.086601,18.4436905 C162.527775,18.4436905 161.968957,18.5512879 161.410131,18.7664861 C160.851304,18.9816842 160.323532,19.2737345 159.826797,19.6426456 C159.330063,20.0115567 158.895427,20.452194 158.522876,20.9645705 C158.150325,21.4769471 157.870916,22.0405528 157.684641,22.6554047 L157.684641,32.3392732 L154.952614,32.3392732 L154.952614,16.2917197 L157.436275,16.2917197 L157.436275,19.7348729 C158.07789,18.6076445 159.004079,17.7058753 160.214869,17.0295382 C161.42566,16.3532012 162.745091,16.0150377 164.173203,16.0150377 C165.10458,16.0150377 165.880716,16.1841195 166.501634,16.522288 C167.122552,16.8604565 167.619279,17.3318359 167.99183,17.9364402 C168.364381,18.5410445 168.628267,19.2532373 168.783497,20.0730398 C168.938726,20.8928423 169.01634,21.7843641 169.01634,22.747632 L169.01634,32.3392732 Z M180.441176,32.6466976 C179.220037,32.6466976 178.102402,32.4263789 177.088235,31.9857351 C176.074069,31.5450913 175.204797,30.9456197 174.480392,30.1873024 C173.755988,29.4289851 173.191995,28.5425869 172.788399,27.5280814 C172.384802,26.5135758 172.183007,25.4427249 172.183007,24.3154964 C172.183007,23.188268 172.384802,22.1225408 172.788399,21.1182827 C173.191995,20.1140247 173.761162,19.2327502 174.495915,18.4744329 C175.230668,17.7161156 176.105115,17.116644 177.119281,16.6760002 C178.133447,16.2353563 179.251083,16.0150377 180.472222,16.0150377 C181.693361,16.0150377 182.805823,16.24048 183.809641,16.6913714 C184.813458,17.1422628 185.667208,17.7417344 186.370915,18.4898041 C187.074622,19.2378739 187.617917,20.108901 188.000817,21.1029115 C188.383717,22.096922 188.575163,23.1267834 188.575163,24.1925267 C188.575163,24.4179724 188.569989,24.6229199 188.559641,24.8073755 C188.549292,24.991831 188.533769,25.1352943 188.513072,25.2377696 L175.070261,25.2377696 C175.132353,26.037077 175.318626,26.7646408 175.629085,27.4204828 C175.939544,28.0763248 176.343135,28.6399306 176.839869,29.111317 C177.336604,29.5827034 177.900596,29.951609 178.531863,30.2180448 C179.16313,30.4844806 179.830607,30.6176965 180.534314,30.6176965 C181.031048,30.6176965 181.517427,30.5510886 181.993464,30.4178707 C182.469501,30.2846528 182.914486,30.1053237 183.328431,29.879878 C183.742377,29.6544323 184.109748,29.3777531 184.430556,29.0498321 C184.751363,28.7219111 184.994553,28.3530055 185.160131,27.9431043 L187.519608,28.5886955 C187.250543,29.1830523 186.883172,29.7261633 186.417484,30.2180448 C185.951795,30.7099263 185.413674,31.1351925 184.803105,31.4938561 C184.192535,31.8525197 183.51471,32.1343225 182.769608,32.3392732 C182.024506,32.5442238 181.24837,32.6466976 180.441176,32.6466976 L180.441176,32.6466976 Z M185.998366,23.239511 C185.936274,22.4811937 185.744827,21.7792484 185.42402,21.1336539 C185.103212,20.4880595 184.699621,19.9398248 184.213235,19.4889334 C183.726849,19.038042 183.162857,18.6845075 182.521242,18.4283192 C181.879626,18.172131 181.196627,18.0440387 180.472222,18.0440387 C179.747818,18.0440387 179.064818,18.172131 178.423203,18.4283192 C177.781587,18.6845075 177.217595,19.0431657 176.731209,19.5043046 C176.244823,19.9654435 175.851581,20.5136782 175.551471,21.1490251 C175.25136,21.7843721 175.070262,22.4811937 175.00817,23.239511 L185.998366,23.239511 Z M200,31.5399697 C199.834422,31.62195 199.617104,31.7193001 199.348039,31.8320229 C199.078975,31.9447458 198.773695,32.0574669 198.43219,32.1701897 C198.090685,32.2829126 197.718139,32.375139 197.314542,32.4468717 C196.910946,32.5186044 196.491832,32.5544702 196.05719,32.5544702 C195.063721,32.5544702 194.204797,32.2829147 193.480392,31.7397956 C192.755988,31.1966764 192.393791,30.3512678 192.393791,29.2035443 L192.393791,18.412948 L190.189542,18.412948 L190.189542,16.2917197 L192.393791,16.2917197 L192.393791,10.9425352 L195.125817,10.9425352 L195.125817,16.2917197 L198.75817,16.2917197 L198.75817,18.412948 L195.125817,18.412948 L195.125817,28.3734985 C195.167212,28.9678553 195.363833,29.3982451 195.715686,29.6646809 C196.06754,29.9311167 196.481479,30.0643326 196.957516,30.0643326 C197.495645,30.0643326 197.987198,29.9772299 198.43219,29.8030219 C198.877181,29.6288139 199.182461,29.4904743 199.348039,29.387999 L200,31.5399697 Z" id="medinet" fill="#FFFFFF"></path>
                <g id="Group-12">
                    <path d="M14.1582015,41.3639778 C6.33884275,41.3639778 0,35.1908832 0,27.5759852 C0,20.8834383 4.8962618,15.3045723 11.3906484,14.0512843 C11.3889644,13.9637176 11.3881186,13.8759513 11.3881186,13.7879926 C11.3881186,6.17309455 17.7269614,0 25.5463202,0 C30.9603614,0 35.6646387,2.95940064 38.0465099,7.30772731 C40.1556764,6.09265727 42.6165573,5.39530145 45.2446876,5.39530145 C52.9345264,5.39530145 59.1924896,11.3655873 59.3976937,18.8061026 C64.2159111,20.2703937 67.7131378,24.6494792 67.7131378,29.8240274 C67.7131378,36.1473345 62.4907702,41.2827863 56.0172322,41.3630245 L14.1582069,41.3639778 Z" id="Combined-Shape" stroke="#FFFFFF" stroke-width="4"></path>
                    <g id="Group-14" transform="translate(21.724116, 12.185718)" fill="#FFFFFF">
                        <path d="M15.4615869,8.16644761 L15.4615869,0.995012574 C15.4615869,0.448575265 15.0150362,0 14.4641878,0 L9.28581215,0 C8.73712721,0 8.28841306,0.445482304 8.28841306,0.995012574 L8.28841306,8.16644761 L1.11697803,8.16644761 C0.570540718,8.16644761 0.121965453,8.61299839 0.121965453,9.1638467 L0.121965453,14.3422224 C0.121965453,14.8909073 0.567447757,15.3396215 1.11697803,15.3396215 L8.28841306,15.3396215 L8.28841306,22.5110565 C8.28841306,23.0574938 8.73496384,23.5060691 9.28581215,23.5060691 L14.4641878,23.5060691 C15.0128728,23.5060691 15.4615869,23.0605868 15.4615869,22.5110565 L15.4615869,15.3396215 L22.633022,15.3396215 C23.1794593,15.3396215 23.6280345,14.8930707 23.6280345,14.3422224 L23.6280345,9.1638467 C23.6280345,8.61516176 23.1825522,8.16644761 22.633022,8.16644761 L15.4615869,8.16644761 Z" id="Combined-Shape"></path>
                    </g>
                </g>
            </g>
        </g>
    </g>
</svg>